PathFileType  4	(X/Y/Z) /Users/mattheworga/Documents/Git/DLSU/thesis/database/S00_Demo-Batch/P00_Demo-man/T00_Trial/pose-3d
DataRate	CameraRate	NumFrames	NumMarkers	Units	OrigDataRate	OrigDataStartFrame	OrigNumFrames
60.0	60.0	14	22	m	60.0	60	100
Frame#	Time	Hip			RHip			RKnee			RAnkle			RBigToe			RSmallToe			RHeel			LHip			LKnee			LAnkle			LBigToe			LSmallToe			LHeel			Neck			Head			Nose			RShoulder			RElbow			RWrist			LShoulder			LElbow			LWrist			
		X1	Y1	Z1	X2	Y2	Z2	X3	Y3	Z3	X4	Y4	Z4	X5	Y5	Z5	X6	Y6	Z6	X7	Y7	Z7	X8	Y8	Z8	X9	Y9	Z9	X10	Y10	Z10	X11	Y11	Z11	X12	Y12	Z12	X13	Y13	Z13	X14	Y14	Z14	X15	Y15	Z15	X16	Y16	Z16	X17	Y17	Z17	X18	Y18	Z18	X19	Y19	Z19	X20	Y20	Z20	X21	Y21	Z21	X22	Y22	Z22	

61	1.0000000	-0.1298697	0.9599691	-1.0119337	-0.2317437	1.0014631	-1.0147669	-0.4149641	0.6927070	-0.7921545	-0.5804740	0.3497123	-0.8419904	-0.4998700	0.2389351	-0.6722873	-0.5945369	0.2704522	-0.7289699	-0.5724772	0.2822133	-0.8846391	-0.0474220	0.9046800	-1.0173601	-0.0650768	0.5028983	-0.9763079	-0.0175415	0.1559857	-1.1508788	-0.0237324	0.0854433	-0.9877401	0.0200927	0.0777657	-1.0299154	-0.0129856	0.1042289	-1.2110295	0.2251257	1.3330204	-0.9107823	0.3670668	1.4751588	-0.7648325	0.2883046	1.3353019	-0.7686834	0.0521098	1.4262375	-0.9397885	-0.2063121	1.4933442	-0.9009882	-0.0914386	1.6012250	-0.7047372	0.3166273	1.1777775	-1.0084026	0.3765527	0.9151812	-1.0340493	0.4149464	0.6610602	-0.9658209
62	1.0166667	-0.1278370	0.9610630	-1.0011257	-0.2326390	1.0003237	-1.0071461	-0.3944369	0.6805817	-0.7879748	-0.5497175	0.3398233	-0.8488347	-0.4502499	0.2220237	-0.6591595	-0.5336238	0.2443845	-0.6998111	-0.5284237	0.2655134	-0.8796250	-0.0435735	0.9076364	-1.0030296	-0.0647634	0.5054268	-0.9747437	-0.0186770	0.1554522	-1.1517403	-0.0230009	0.0870009	-0.9856465	0.0206029	0.0796548	-1.0305856	-0.0148652	0.1034017	-1.2105723	0.2197312	1.3358472	-0.9003490	0.3601931	1.4801774	-0.7447517	0.2806246	1.3374264	-0.7515015	0.0461768	1.4290268	-0.9302588	-0.2134393	1.4884334	-0.8932696	-0.1008267	1.5938472	-0.6882112	0.3141963	1.1840370	-0.9980872	0.3765447	0.9215504	-1.0259100	0.4156447	0.6656843	-0.9591416
63	1.0333333	-0.1262294	0.9617710	-0.9919945	-0.2329798	0.9983666	-0.9991608	-0.3724701	0.6681955	-0.7846838	-0.5114673	0.3252135	-0.8446689	-0.4036585	0.2085670	-0.6420372	-0.4761066	0.2224487	-0.6693411	-0.4840549	0.2485827	-0.8660965	-0.0407213	0.9099986	-0.9907296	-0.0632856	0.5072868	-0.9734219	-0.0199011	0.1548900	-1.1520236	-0.0215866	0.0877216	-0.9851610	0.0212948	0.0812202	-1.0325751	-0.0169566	0.1025042	-1.2089844	0.2138276	1.3391326	-0.8902176	0.3540848	1.4858063	-0.7227817	0.2740820	1.3385167	-0.7373928	0.0393782	1.4318383	-0.9210820	-0.2217707	1.4828868	-0.8847227	-0.1101677	1.5865716	-0.6732885	0.3113743	1.1912187	-0.9860192	0.3761553	0.9286619	-1.0166872	0.4159757	0.6708711	-0.9513250
64	1.0500000	-0.1246811	0.9618560	-0.9842282	-0.2326763	0.9955201	-0.9911499	-0.3496946	0.6558489	-0.7823109	-0.4642962	0.3047736	-0.8256154	-0.3606979	0.1977272	-0.6218416	-0.4245530	0.2052961	-0.6407993	-0.4401050	0.2316274	-0.8438206	-0.0386001	0.9117163	-0.9805056	-0.0607757	0.5083366	-0.9718129	-0.0209458	0.1542628	-1.1516306	-0.0190340	0.0873413	-0.9865586	0.0222530	0.0821900	-1.0356084	-0.0189593	0.1016382	-1.2065157	0.2077331	1.3430320	-0.8804619	0.3489206	1.4920687	-0.7003887	0.2683093	1.3391820	-0.7255257	0.0319914	1.4345352	-0.9118421	-0.2310943	1.4770362	-0.8751908	-0.1194961	1.5792041	-0.6603775	0.3084558	1.1992373	-0.9724248	0.3754139	0.9364106	-1.0063932	0.4159649	0.6771122	-0.9422554
65	1.0666667	-0.1230696	0.9611607	-0.9773499	-0.2317152	0.9919108	-0.9832597	-0.3268625	0.6437512	-0.7809489	-0.4115025	0.2811317	-0.7955367	-0.3209791	0.1885038	-0.6004692	-0.3793061	0.1920961	-0.6158925	-0.3957596	0.2142623	-0.8154715	-0.0369092	0.9128561	-0.9720348	-0.0576059	0.5086871	-0.9694058	-0.0216354	0.1533931	-1.1506280	-0.0149968	0.0859359	-0.9898421	0.0235067	0.0823896	-1.0391695	-0.0207205	0.1008020	-1.2037278	0.2018148	1.3476427	-0.8711093	0.3443127	1.4991705	-0.6798559	0.2621980	1.3406794	-0.7134372	0.0241601	1.4370642	-0.9019911	-0.2408560	1.4710863	-0.8652380	-0.1289886	1.5717163	-0.6496125	0.3056437	1.2077815	-0.9581244	0.3743619	0.9443076	-0.9960666	0.4156902	0.6846438	-0.9319331
66	1.0833333	-0.1215146	0.9597493	-0.9709338	-0.2301856	0.9878372	-0.9754323	-0.3047014	0.6319742	-0.7809926	-0.3589761	0.2586292	-0.7629891	-0.2836056	0.1801694	-0.5799652	-0.3395562	0.1816346	-0.5953498	-0.3515218	0.1973551	-0.7864274	-0.0354569	0.9135344	-0.9650311	-0.0543378	0.5084423	-0.9668765	-0.0219644	0.1523160	-1.1493374	-0.0096364	0.0841285	-0.9945083	0.0249897	0.0819066	-1.0426449	-0.0222333	0.1001476	-1.2012072	0.1965196	1.3529121	-0.8621920	0.3396723	1.5073676	-0.6631575	0.2548834	1.3442510	-0.6988643	0.0159006	1.4394136	-0.8910469	-0.2504524	1.4650967	-0.8558137	-0.1390645	1.5640969	-0.6410128	0.3028871	1.2163754	-0.9443791	0.3729983	0.9519736	-0.9868371	0.4153142	0.6934647	-0.9206679
67	1.1000000	-0.1201633	0.9578439	-0.9646054	-0.2282601	0.9836148	-0.9675307	-0.2838060	0.6205694	-0.7829109	-0.3112826	0.2402658	-0.7349697	-0.2483242	0.1725182	-0.5615175	-0.3044801	0.1728533	-0.5791671	-0.3092158	0.1825160	-0.7615788	-0.0340195	0.9138572	-0.9591411	-0.0517333	0.5075187	-0.9659999	-0.0220829	0.1514270	-1.1482319	-0.0040839	0.0829196	-0.9993842	0.0265671	0.0809460	-1.0453458	-0.0236260	0.1000695	-1.1993099	0.1921726	1.3585154	-0.8539582	0.3344360	1.5164879	-0.6504768	0.2460383	1.3504678	-0.6810509	0.0072252	1.4415595	-0.8788779	-0.2595264	1.4590351	-0.8476257	-0.1500969	1.5563325	-0.6342072	0.2999487	1.2246885	-0.9321510	0.3713188	0.9595762	-0.9790568	0.4150409	0.7036214	-0.9089571
68	1.1166667	-0.1189549	0.9556456	-0.9580261	-0.2260787	0.9793846	-0.9595478	-0.2644965	0.6096597	-0.7866457	-0.2700959	0.2267078	-0.7140025	-0.2158180	0.1656047	-0.5454626	-0.2738250	0.1651097	-0.5668149	-0.2702557	0.1706026	-0.7427634	-0.0322931	0.9139031	-0.9537137	-0.0504666	0.5057136	-0.9681807	-0.0221771	0.1512371	-1.1477002	-0.0002307	0.0829157	-1.0027908	0.0280605	0.0795383	-1.0466041	-0.0250930	0.1009699	-1.1981133	0.1887174	1.3638563	-0.8469844	0.3280149	1.5258695	-0.6404909	0.2358301	1.3588430	-0.6613502	-0.0018407	1.4434043	-0.8661839	-0.2680952	1.4528310	-0.8407728	-0.1620885	1.5485299	-0.6281559	0.2965418	1.2327003	-0.9217010	0.3693921	0.9676241	-0.9725194	0.4150702	0.7152156	-0.8973128
69	1.1333333	-0.1175669	0.9531709	-0.9508823	-0.2236260	0.9750665	-0.9515381	-0.2467019	0.5992780	-0.7913566	-0.2351631	0.2171325	-0.6996036	-0.1869076	0.1592979	-0.5320646	-0.2474273	0.1580068	-0.5578422	-0.2353008	0.1615658	-0.7295685	-0.0299790	0.9136694	-0.9479363	-0.0505652	0.5031673	-0.9727547	-0.0223828	0.1520823	-1.1478598	0.0003469	0.0838699	-1.0032159	0.0293113	0.0776290	-1.0461750	-0.0267056	0.1030779	-1.1975324	0.1855277	1.3685132	-0.8414140	0.3198973	1.5349807	-0.6313263	0.2249238	1.3682667	-0.6424322	-0.0113265	1.4448094	-0.8543739	-0.2764400	1.4464375	-0.8349230	-0.1748360	1.5408610	-0.6216081	0.2924023	1.2405987	-0.9127593	0.3673361	0.9764853	-0.9669271	0.4155948	0.7280943	-0.8862554
70	1.1500000	-0.1155074	0.9502315	-0.9427821	-0.2206785	0.9704123	-0.9432671	-0.2301102	0.5891804	-0.7958329	-0.2054424	0.2101092	-0.6905224	-0.1618438	0.1530994	-0.5219525	-0.2247559	0.1510569	-0.5522396	-0.2044212	0.1547849	-0.7209591	-0.0268085	0.9129681	-0.9411216	-0.0511724	0.5004886	-0.9772638	-0.0227745	0.1539386	-1.1484945	-0.0024797	0.0851121	-1.0003143	0.0302847	0.0754166	-1.0445496	-0.0283211	0.1062908	-1.1974007	0.1813212	1.3728288	-0.8359451	0.3098191	1.5438776	-0.6215821	0.2141267	1.3778923	-0.6264118	-0.0211308	1.4458354	-0.8440921	-0.2848423	1.4398184	-0.8296173	-0.1882402	1.5333906	-0.6136610	0.2873355	1.2486506	-0.9047061	0.3652599	0.9862661	-0.9619668	0.4167661	0.7419332	-0.8761496
71	1.1666667	-0.1122786	0.9465834	-0.9332821	-0.2168629	0.9651096	-0.9341151	-0.2143972	0.5790874	-0.7988834	-0.1796555	0.2040812	-0.6858321	-0.1403436	0.1461548	-0.5159933	-0.2050649	0.1434505	-0.5503571	-0.1770932	0.1492295	-0.7159256	-0.0225266	0.9114428	-0.9328410	-0.0510105	0.4981877	-0.9795321	-0.0233719	0.1563845	-1.1492065	-0.0070738	0.0859677	-0.9954001	0.0310860	0.0733716	-1.0427122	-0.0297407	0.1100628	-1.1975473	0.1746394	1.3777727	-0.8283521	0.2977180	1.5529645	-0.6112295	0.2039205	1.3874984	-0.6139491	-0.0308176	1.4468390	-0.8342353	-0.2934275	1.4328545	-0.8243739	-0.2024020	1.5259730	-0.6037121	0.2812589	1.2571354	-0.8968439	0.3632945	0.9969700	-0.9573275	0.4186249	0.7566567	-0.8670467
72	1.1833333	-0.1075951	0.9421058	-0.9221640	-0.2118396	0.9589482	-0.9234553	-0.1992344	0.5690666	-0.7993209	-0.1566885	0.1977708	-0.6851210	-0.1220098	0.1375134	-0.5150179	-0.1877032	0.1342738	-0.5526084	-0.1524824	0.1437514	-0.7137098	-0.0169713	0.9087999	-0.9229466	-0.0491186	0.4962969	-0.9789030	-0.0241666	0.1588738	-1.1497084	-0.0110239	0.0857265	-0.9906671	0.0318839	0.0719017	-1.0415420	-0.0308623	0.1137109	-1.1979047	0.1648644	1.3840678	-0.8173378	0.2835971	1.5626157	-0.6017828	0.1943804	1.3973504	-0.6046735	-0.0400778	1.4480120	-0.8236449	-0.3022231	1.4253076	-0.8187269	-0.2174635	1.5183479	-0.5917220	0.2742053	1.2662650	-0.8889187	0.3616697	1.0085174	-0.9529017	0.4211188	0.7725930	-0.8587602
73	1.2000000	-0.1015312	0.9369085	-0.9096289	-0.2055049	0.9519635	-0.9110418	-0.1843638	0.5594147	-0.7962248	-0.1358919	0.1904793	-0.6882622	-0.1065749	0.1267821	-0.5193401	-0.1721832	0.1232435	-0.5587806	-0.1299498	0.1375088	-0.7141370	-0.0102202	0.9050609	-0.9115974	-0.0452068	0.4946093	-0.9758197	-0.0251324	0.1610422	-1.1499373	-0.0127884	0.0839229	-0.9877024	0.0328567	0.0710926	-1.0414303	-0.0316932	0.1168276	-1.1984685	0.1527146	1.3915801	-0.8035946	0.2672962	1.5730440	-0.5957251	0.1853721	1.4079558	-0.5977529	-0.0493935	1.4489097	-0.8133233	-0.3113406	1.4168754	-0.8122758	-0.2335174	1.5102244	-0.5788658	0.2662494	1.2761217	-0.8814250	0.3607137	1.0205763	-0.9489364	0.4242404	0.7901932	-0.8509029
74	1.2166667	-0.0944215	0.9313254	-0.8961669	-0.1980210	0.9444301	-0.8970244	-0.1697665	0.5504080	-0.7893214	-0.1170925	0.1821054	-0.6950433	-0.0937792	0.1145992	-0.5280636	-0.1580643	0.1111032	-0.5674403	-0.1093482	0.1301625	-0.7176788	-0.0026098	0.9005679	-0.8991832	-0.0396109	0.4929834	-0.9711003	-0.0261698	0.1626950	-1.1499435	-0.0123081	0.0807230	-0.9867826	0.0341152	0.0707310	-1.0422439	-0.0323267	0.1192783	-1.1991448	0.1395980	1.3996112	-0.7890591	0.2482267	1.5844023	-0.5957311	0.1766542	1.4197527	-0.5922700	-0.0597228	1.4487889	-0.8055167	-0.3210034	1.4073108	-0.8048055	-0.2506500	1.5011728	-0.5667522	0.2574115	1.2866870	-0.8752717	0.3607453	1.0325601	-0.9459384	0.4281759	0.8094512	-0.8430158
